<?xml version="1.0" encoding="utf-8"?>
<!-- Generator: Adobe Illustrator 21.0.1, SVG Export Plug-In . SVG Version: 6.00 Build 0)  -->
<svg version="1.1" id="Layer_1" xmlns="http://www.w3.org/2000/svg" xmlns:xlink="http://www.w3.org/1999/xlink" x="0px" y="0px"
	 viewBox="0 0 800 800" style="enable-background:new 0 0 800 800;" xml:space="preserve">
<style type="text/css">
	.st0{fill:#A6F5F7;stroke:#231F20;stroke-miterlimit:10;}
	.st1{fill:#62B7B3;}
	.st2{fill:#62B7B3;stroke:#62B7B3;stroke-width:1.0325;stroke-miterlimit:10;}
	.st3{fill:#89A7A7;stroke:#231F20;stroke-width:1.9522;stroke-linecap:square;stroke-linejoin:round;stroke-miterlimit:10;}
	.st4{fill:#E46357;stroke:#231F20;stroke-width:1.9522;stroke-linecap:square;stroke-linejoin:round;stroke-miterlimit:10;}
	.st5{fill:#A75D67;stroke:#231F20;stroke-width:1.9522;stroke-linecap:square;stroke-linejoin:round;stroke-miterlimit:10;}
</style>
<rect class="st0" width="800" height="800"/>
<g>
	<g>
		<polygon class="st1" points="141.4,479.9 151.5,494.9 140,493.7 131.6,485.6 		"/>
	</g>
	<g>
		<path class="st1" d="M123.1,477.4l8.5,8.1c-5.7,4.6-11.5,9.2-17.2,13.8c-3.6-3.6-7.2-7.1-10.8-10.7L123.1,477.4z"/>
	</g>
	<g>
		<polygon class="st2" points="217.1,436.2 225.5,444.3 215.8,450 207.3,441.8 		"/>
	</g>
	<g>
		<polygon class="st1" points="274.5,390 283,398.1 267.1,413 255,401.3 		"/>
	</g>
	<g>
		<polygon class="st1" points="567.6,220.8 576.1,228.9 561.3,244.8 548.1,232.1 		"/>
	</g>
	<g>
		<polygon class="st1" points="585.8,223.3 596,238.4 584.6,237.1 576.1,228.9 		"/>
	</g>
	<g>
		<polygon class="st2" points="611.2,247.7 619.7,255.9 609.9,261.5 601.5,253.3 		"/>
	</g>
	<g>
		<polygon class="st1" points="609.9,261.5 610.3,282.2 598.9,280.9 590.4,272.8 		"/>
	</g>
	<g>
		<polygon class="st1" points="556.5,240.2 592,279.7 580.6,278.4 546.8,245.8 		"/>
	</g>
	<g>
		<polygon class="st1" points="501.7,258.8 510.1,267 500.4,272.6 534.2,305.2 544,299.6 534.6,326 523.1,324.6 514.7,316.5 
			524.5,310.8 490.6,278.3 492.3,285.3 480.8,283.9 472.4,275.8 		"/>
	</g>
	<g>
		<polygon class="st1" points="435.7,296.9 488.2,352.8 476.7,351.4 451.4,327 431.8,338.3 458.8,369.7 447.4,368.3 396.7,319.5 
			406.4,313.8 423.4,330.1 442.9,318.8 426,302.6 		"/>
	</g>
	<g>
		<polygon class="st2" points="368.5,348.8 377,356.9 367.2,362.6 358.7,354.4 		"/>
	</g>
	<g>
		<polygon class="st1" points="350.3,346.3 358.7,354.4 339.2,365.7 347.6,373.8 367.2,362.6 375.6,370.7 356.1,382 383.1,413.4 
			371.7,412 320.9,363.2 		"/>
	</g>
	<g>
		<polygon class="st1" points="292.8,392.5 336.7,440 325.3,438.8 299.9,414.4 280.4,425.7 307.4,456.8 296,455.8 253.7,415.1 
			263.5,409.4 271.9,417.6 291.5,406.3 283,398.1 		"/>
	</g>
	<g>
		<polygon class="st1" points="234,452.5 261,483.7 249.6,482.6 224.2,458.1 		"/>
	</g>
	<g>
		<polygon class="st1" points="198.8,433.7 207.3,441.8 187.8,453.1 196.2,461.3 215.8,450 224.2,458.1 204.7,469.4 231.7,500.8 
			220.3,499.5 169.5,450.6 		"/>
	</g>
	<g>
		<path class="st1" d="M166.7,504.3l8.5,8.1l-9.8,5.6c0.1,6.6,0.2,13.9,0.3,20.6c-3.8-0.2-7.6-1-11.4-1.2l-8.5-8.1l9.8-5.6l-8.5-8.1
			L166.7,504.3z"/>
	</g>
	<g>
		<path class="st1" d="M112,496.8c11.8,12.9,23.7,26.3,35.5,39.2c-3.8-0.2-7.6-0.8-11.4-1l-33.8-32.6L112,496.8z"/>
	</g>
	<g>
		<polygon class="st1" points="414.1,439.7 422.6,447.8 398.5,469.8 384.8,456.6 		"/>
	</g>
	<g>
		<polygon class="st1" points="393.3,464.7 400.3,470.9 403.4,479.9 391.9,478.5 383.5,470.4 		"/>
	</g>
	<g>
		<polygon class="st1" points="338.4,483.4 346.9,491.5 317.5,508.5 326,516.6 345.5,505.3 354,513.5 334.5,524.7 351.4,541 
			380.7,524.1 361.5,556.1 350.1,554.8 299.3,505.9 		"/>
	</g>
	<g>
		<polygon class="st2" points="271.1,535.2 305,567.8 295.2,573.4 261.4,540.9 		"/>
	</g>
	<g>
		<polygon class="st1" points="252.9,532.7 261.4,540.9 241.8,552.2 275.7,584.7 295.2,573.4 285.8,599.9 274.4,598.5 223.6,549.7 
					"/>
	</g>
	<g>
		<polygon class="st1" points="421.3,461.6 421.6,482.4 410.2,481 401.7,472.9 		"/>
	</g>
	<g>
		<polygon class="st2" points="564.2,366 572.7,374.2 562.9,379.8 554.5,371.7 		"/>
	</g>
	<g>
		<polygon class="st1" points="546,363.5 554.5,371.7 539.4,387.2 526.4,374.8 		"/>
	</g>
	<g>
		<polygon class="st1" points="631.5,314.2 683.9,370 672.5,368.7 647.1,344.2 637.3,349.9 628.9,341.7 638.6,336.1 621.7,319.8 		
			"/>
	</g>
	<g>
		<polygon class="st1" points="602.2,331.1 610.6,339.2 620.4,333.6 628.9,341.7 619.1,347.4 654.6,386.8 643.2,385.6 592.4,336.7 
					"/>
	</g>
	<g>
		<polygon class="st1" points="589.6,390.5 598.1,398.6 588.3,404.2 588.6,424.7 577.2,423.7 568.8,415.5 578.5,409.9 570.1,401.7 
					"/>
	</g>
	<g>
		<polygon class="st1" points="534.9,383 570.4,422.3 559,421.2 525.1,388.6 		"/>
	</g>
	<g>
		<polygon class="st1" points="480,401.6 488.5,409.7 478.7,415.4 512.6,448 522.4,442.3 512.9,468.8 501.5,467.4 493,459.2 
			502.8,453.6 469,421 470.6,428 459.2,426.7 450.7,418.5 		"/>
	</g>
	<g>
		<polygon class="st2" points="439.5,464.1 456.4,480.4 446.6,486 429.7,469.7 		"/>
	</g>
	<g>
		<polygon class="st1" points="446.6,486 437.2,512.5 425.8,511.1 417.3,502.9 		"/>
	</g>
	<g>
		<polygon class="st3" points="165.3,467.4 161.2,488.6 151.5,494.2 155.5,473 		"/>
	</g>
	<g>
		<polygon class="st4" points="156.8,459.3 165.3,467.4 155.5,473 147.1,464.9 		"/>
	</g>
	<g>
		<polygon class="st5" points="155.5,473 151.5,494.2 143,486.1 147.1,464.9 		"/>
	</g>
	<g>
		<polygon class="st5" points="127.5,476.2 123.5,497.3 115,489.2 119.1,468 		"/>
	</g>
	<g>
		<polygon class="st3" points="147.1,464.9 143,486.1 123.5,497.3 127.5,476.2 		"/>
	</g>
	<g>
		<polygon class="st4" points="138.6,456.8 147.1,464.9 127.5,476.2 119.1,468 		"/>
	</g>
	<g>
		<polygon class="st3" points="241,423.7 236.9,444.8 227.2,450.5 231.2,429.3 		"/>
	</g>
	<g>
		<polygon class="st5" points="231.2,429.3 227.2,450.5 218.7,442.3 222.8,421.2 		"/>
	</g>
	<g>
		<polygon class="st4" points="232.6,415.6 241,423.7 231.2,429.3 222.8,421.2 		"/>
	</g>
	<g>
		<polygon class="st3" points="298.5,377.5 294.4,398.6 274.9,409.9 279,388.8 		"/>
	</g>
	<g>
		<polygon class="st5" points="279,388.8 274.9,409.9 266.4,401.8 270.5,380.6 		"/>
	</g>
	<g>
		<polygon class="st4" points="290,369.3 298.5,377.5 279,388.8 270.5,380.6 		"/>
	</g>
	<g>
		<polygon class="st3" points="591.6,208.3 587.5,229.4 568,240.7 572,219.5 		"/>
	</g>
	<g>
		<polygon class="st5" points="572,219.5 568,240.7 559.5,232.6 563.6,211.4 		"/>
	</g>
	<g>
		<polygon class="st4" points="583.1,200.1 591.6,208.3 572,219.5 563.6,211.4 		"/>
	</g>
	<g>
		<polygon class="st3" points="609.8,210.8 605.7,231.9 596,237.6 600,216.4 		"/>
	</g>
	<g>
		<polygon class="st5" points="600,216.4 596,237.6 587.5,229.4 591.6,208.3 		"/>
	</g>
	<g>
		<polygon class="st4" points="601.3,202.6 609.8,210.8 600,216.4 591.6,208.3 		"/>
	</g>
	<g>
		<polygon class="st3" points="635.2,235.2 631.1,256.4 621.4,262 625.4,240.8 		"/>
	</g>
	<g>
		<polygon class="st5" points="625.4,240.8 621.4,262 612.9,253.8 617,232.7 		"/>
	</g>
	<g>
		<polygon class="st4" points="626.7,227.1 635.2,235.2 625.4,240.8 617,232.7 		"/>
	</g>
	<g>
		<polygon class="st3" points="633.9,249 629.8,270.1 610.3,281.4 614.3,260.3 		"/>
	</g>
	<g>
		<polygon class="st5" points="614.3,260.3 610.3,281.4 601.8,273.3 605.9,252.1 		"/>
	</g>
	<g>
		<polygon class="st4" points="625.4,240.8 633.9,249 614.3,260.3 605.9,252.1 		"/>
	</g>
	<g>
		<polygon class="st3" points="605.9,252.1 601.8,273.3 592,278.9 596.1,257.8 		"/>
	</g>
	<g>
		<polygon class="st5" points="596.1,257.8 592,278.9 558.2,246.3 562.3,225.2 		"/>
	</g>
	<g>
		<polygon class="st4" points="572,219.5 605.9,252.1 596.1,257.8 562.3,225.2 		"/>
	</g>
	<g>
		<polygon class="st3" points="525.6,246.3 521.6,267.5 511.8,273.1 515.9,252 		"/>
	</g>
	<g>
		<polygon class="st3" points="506.1,257.6 502,278.8 492.3,284.4 496.3,263.3 		"/>
	</g>
	<g>
		<polygon class="st5" points="496.3,263.3 492.3,284.4 483.8,276.3 487.9,255.1 		"/>
	</g>
	<g>
		<polygon class="st5" points="539.9,290.2 535.9,311.3 502,278.8 506.1,257.6 		"/>
	</g>
	<g>
		<polygon class="st5" points="538.6,304 534.6,325.1 526.1,317 530.2,295.8 		"/>
	</g>
	<g>
		<polygon class="st3" points="567.9,287.1 563.9,308.2 534.6,325.1 538.6,304 		"/>
	</g>
	<g>
		<polygon class="st4" points="517.2,238.2 525.6,246.3 515.9,252 549.7,284.5 559.5,278.9 567.9,287.1 538.6,304 530.2,295.8 
			539.9,290.2 506.1,257.6 496.3,263.3 487.9,255.1 		"/>
	</g>
	<g>
		<polygon class="st5" points="458.4,298.2 454.3,319.3 437.4,303.1 441.5,281.9 		"/>
	</g>
	<g>
		<polygon class="st3" points="466.8,306.3 462.8,327.5 443.2,338.8 447.3,317.6 		"/>
	</g>
	<g>
		<polygon class="st5" points="492.2,330.8 488.2,351.9 462.8,327.5 466.8,306.3 		"/>
	</g>
	<g>
		<polygon class="st3" points="502,325.1 497.9,346.3 488.2,351.9 492.2,330.8 		"/>
	</g>
	<g>
		<polygon class="st5" points="462.9,347.7 458.8,368.8 408.1,320 412.1,298.8 		"/>
	</g>
	<g>
		<polygon class="st3" points="472.7,342 468.6,363.2 458.8,368.8 462.9,347.7 		"/>
	</g>
	<g>
		<polygon class="st4" points="451.2,276.3 502,325.1 492.2,330.8 466.8,306.3 447.3,317.6 472.7,342 462.9,347.7 412.1,298.8 
			421.9,293.2 438.8,309.5 458.4,298.2 441.5,281.9 		"/>
	</g>
	<g>
		<polygon class="st3" points="392.4,336.3 388.4,357.4 378.6,363.1 382.7,341.9 		"/>
	</g>
	<g>
		<polygon class="st5" points="382.7,341.9 378.6,363.1 370.1,354.9 374.2,333.8 		"/>
	</g>
	<g>
		<polygon class="st4" points="384,328.1 392.4,336.3 382.7,341.9 374.2,333.8 		"/>
	</g>
	<g>
		<polygon class="st3" points="374.2,333.8 370.1,354.9 350.6,366.2 354.7,345 		"/>
	</g>
	<g>
		<polygon class="st3" points="391.1,350.1 387.1,371.2 367.5,382.5 371.6,361.3 		"/>
	</g>
	<g>
		<polygon class="st3" points="397,385.8 392.9,406.9 383.1,412.6 387.2,391.4 		"/>
	</g>
	<g>
		<polygon class="st5" points="387.2,391.4 383.1,412.6 332.4,363.7 336.4,342.5 		"/>
	</g>
	<g>
		<polygon class="st4" points="365.7,325.6 374.2,333.8 354.7,345 363.1,353.2 382.7,341.9 391.1,350.1 371.6,361.3 397,385.8 
			387.2,391.4 336.4,342.5 		"/>
	</g>
	<g>
		<polygon class="st5" points="307,385.6 302.9,406.8 294.4,398.6 298.5,377.5 		"/>
	</g>
	<g>
		<polygon class="st3" points="315.4,393.8 311.3,414.9 291.8,426.2 295.9,405 		"/>
	</g>
	<g>
		<polygon class="st5" points="340.8,418.2 336.7,439.3 311.3,414.9 315.4,393.8 		"/>
	</g>
	<g>
		<polygon class="st3" points="350.6,412.5 346.5,433.7 336.7,439.3 340.8,418.2 		"/>
	</g>
	<g>
		<polygon class="st5" points="311.5,435.1 307.4,456.3 265.1,415.6 269.2,394.4 		"/>
	</g>
	<g>
		<polygon class="st3" points="321.3,429.5 317.2,450.6 307.4,456.3 311.5,435.1 		"/>
	</g>
	<g>
		<polygon class="st4" points="308.3,371.8 350.6,412.5 340.8,418.2 315.4,393.8 295.9,405 321.3,429.5 311.5,435.1 269.2,394.4 
			279,388.8 287.4,396.9 307,385.6 298.5,377.5 		"/>
	</g>
	<g>
		<polygon class="st3" points="274.9,456.3 270.8,477.4 261,483.1 265.1,461.9 		"/>
	</g>
	<g>
		<polygon class="st5" points="265.1,461.9 261,483.1 235.6,458.6 239.7,437.5 		"/>
	</g>
	<g>
		<polygon class="st4" points="249.5,431.8 274.9,456.3 265.1,461.9 239.7,437.5 		"/>
	</g>
	<g>
		<polygon class="st3" points="222.8,421.2 218.7,442.3 199.2,453.6 203.2,432.5 		"/>
	</g>
	<g>
		<polygon class="st3" points="239.7,437.5 235.6,458.6 216.1,469.9 220.2,448.8 		"/>
	</g>
	<g>
		<polygon class="st3" points="245.5,473.2 241.5,494.3 231.7,500 235.8,478.8 		"/>
	</g>
	<g>
		<polygon class="st5" points="235.8,478.8 231.7,500 180.9,451.1 185,430 		"/>
	</g>
	<g>
		<polygon class="st4" points="214.3,413 222.8,421.2 203.2,432.5 211.7,440.6 231.2,429.3 239.7,437.5 220.2,448.8 245.5,473.2 
			235.8,478.8 185,430 		"/>
	</g>
	<g>
		<polygon class="st3" points="190.7,491.8 186.6,513 176.8,518.6 180.9,497.5 		"/>
	</g>
	<g>
		<polygon class="st5" points="171.1,503.1 167.1,524.3 158.6,516.1 162.7,495 		"/>
	</g>
	<g>
		<polygon class="st5" points="169.8,516.9 165.8,538 157.3,529.9 161.4,508.8 		"/>
	</g>
	<g>
		<polygon class="st3" points="189.4,505.6 185.3,526.8 165.8,538 169.8,516.9 		"/>
	</g>
	<g>
		<polygon class="st4" points="182.2,483.7 190.7,491.8 180.9,497.5 189.4,505.6 169.8,516.9 161.4,508.8 171.1,503.1 162.7,495 		
			"/>
	</g>
	<g>
		<polygon class="st3" points="161.4,508.8 157.3,529.9 147.5,535.5 151.6,514.4 		"/>
	</g>
	<g>
		<polygon class="st5" points="151.6,514.4 147.5,535.5 113.7,503 117.8,481.8 		"/>
	</g>
	<g>
		<polygon class="st4" points="127.5,476.2 161.4,508.8 151.6,514.4 117.8,481.8 		"/>
	</g>
	<g>
		<polygon class="st3" points="438.1,427.2 434,448.3 404.7,465.2 408.7,444.1 		"/>
	</g>
	<g>
		<polygon class="st5" points="408.7,444.1 404.7,465.2 396.2,457.1 400.3,435.9 		"/>
	</g>
	<g>
		<polygon class="st4" points="429.6,419 438.1,427.2 408.7,444.1 400.3,435.9 		"/>
	</g>
	<g>
		<polygon class="st3" points="417.2,452.2 413.1,473.4 403.4,479 407.4,457.9 		"/>
	</g>
	<g>
		<polygon class="st5" points="407.4,457.9 403.4,479 394.9,470.9 399,449.7 		"/>
	</g>
	<g>
		<polygon class="st4" points="408.7,444.1 417.2,452.2 407.4,457.9 399,449.7 		"/>
	</g>
	<g>
		<polygon class="st3" points="362.3,470.9 358.3,492 329,509 333,487.8 		"/>
	</g>
	<g>
		<polygon class="st3" points="369.5,492.8 365.4,514 345.9,525.2 350,504.1 		"/>
	</g>
	<g>
		<polygon class="st3" points="404.6,511.6 400.6,532.7 361.5,555.3 365.6,534.2 		"/>
	</g>
	<g>
		<polygon class="st5" points="365.6,534.2 361.5,555.3 310.7,506.4 314.8,485.3 		"/>
	</g>
	<g>
		<polygon class="st4" points="353.9,462.7 362.3,470.9 333,487.8 341.5,495.9 361,484.7 369.5,492.8 350,504.1 366.9,520.4 
			396.2,503.4 404.6,511.6 365.6,534.2 314.8,485.3 		"/>
	</g>
	<g>
		<polygon class="st3" points="320.5,547.2 316.4,568.3 306.6,574 310.7,552.8 		"/>
	</g>
	<g>
		<polygon class="st5" points="310.7,552.8 306.6,574 272.8,541.4 276.9,520.2 		"/>
	</g>
	<g>
		<polygon class="st4" points="286.6,514.6 320.5,547.2 310.7,552.8 276.9,520.2 		"/>
	</g>
	<g>
		<polygon class="st3" points="276.9,520.2 272.8,541.4 253.2,552.7 257.3,531.5 		"/>
	</g>
	<g>
		<polygon class="st3" points="319.2,560.9 315.1,582.1 285.8,599 289.9,577.9 		"/>
	</g>
	<g>
		<polygon class="st5" points="289.9,577.9 285.8,599 235,550.2 239.1,529 		"/>
	</g>
	<g>
		<polygon class="st4" points="268.4,512.1 276.9,520.2 257.3,531.5 291.2,564.1 310.7,552.8 319.2,560.9 289.9,577.9 239.1,529 		
			"/>
	</g>
	<g>
		<polygon class="st3" points="445.2,449.1 441.1,470.2 421.6,481.5 425.7,460.4 		"/>
	</g>
	<g>
		<polygon class="st5" points="425.7,460.4 421.6,481.5 413.1,473.4 417.2,452.2 		"/>
	</g>
	<g>
		<polygon class="st4" points="436.7,440.9 445.2,449.1 425.7,460.4 417.2,452.2 		"/>
	</g>
	<g>
		<polygon class="st3" points="588.2,353.5 584.1,374.7 574.3,380.3 578.4,359.2 		"/>
	</g>
	<g>
		<polygon class="st5" points="578.4,359.2 574.3,380.3 565.9,372.2 569.9,351 		"/>
	</g>
	<g>
		<polygon class="st4" points="579.7,345.4 588.2,353.5 578.4,359.2 569.9,351 		"/>
	</g>
	<g>
		<polygon class="st3" points="569.9,351 565.9,372.2 546.3,383.5 550.4,362.3 		"/>
	</g>
	<g>
		<polygon class="st5" points="550.4,362.3 546.3,383.5 537.9,375.3 541.9,354.2 		"/>
	</g>
	<g>
		<polygon class="st4" points="561.5,342.9 569.9,351 550.4,362.3 541.9,354.2 		"/>
	</g>
	<g>
		<polygon class="st5" points="654.1,315.4 650,336.6 633.1,320.3 637.2,299.2 		"/>
	</g>
	<g>
		<polygon class="st5" points="652.8,329.2 648.7,350.4 640.3,342.2 644.3,321.1 		"/>
	</g>
	<g>
		<polygon class="st3" points="662.6,323.6 658.5,344.7 648.7,350.4 652.8,329.2 		"/>
	</g>
	<g>
		<polygon class="st3" points="644.3,321.1 640.3,342.2 630.5,347.9 634.6,326.7 		"/>
	</g>
	<g>
		<polygon class="st4" points="647,293.5 697.7,342.4 688,348 662.6,323.6 652.8,329.2 644.3,321.1 654.1,315.4 637.2,299.2 		"/>
	</g>
	<g>
		<polygon class="st3" points="697.7,342.4 693.7,363.5 683.9,369.2 688,348 		"/>
	</g>
	<g>
		<polygon class="st5" points="688,348 683.9,369.2 658.5,344.7 662.6,323.6 		"/>
	</g>
	<g>
		<polygon class="st3" points="668.4,359.3 664.3,380.5 654.6,386.1 658.6,364.9 		"/>
	</g>
	<g>
		<polygon class="st4" points="617.6,310.4 626.1,318.6 635.9,312.9 644.3,321.1 634.6,326.7 668.4,359.3 658.6,364.9 607.9,316.1 
					"/>
	</g>
	<g>
		<polygon class="st5" points="658.6,364.9 654.6,386.1 603.8,337.2 607.9,316.1 		"/>
	</g>
	<g>
		<polygon class="st3" points="613.6,377.9 609.5,399.1 599.7,404.7 603.8,383.6 		"/>
	</g>
	<g>
		<polygon class="st5" points="594,389.2 589.9,410.4 581.5,402.2 585.6,381.1 		"/>
	</g>
	<g>
		<polygon class="st5" points="592.7,403 588.6,424.2 580.2,416 584.2,394.9 		"/>
	</g>
	<g>
		<polygon class="st3" points="612.2,391.7 608.2,412.9 588.6,424.2 592.7,403 		"/>
	</g>
	<g>
		<polygon class="st4" points="605.1,369.8 613.6,377.9 603.8,383.6 612.2,391.7 592.7,403 584.2,394.9 594,389.2 585.6,381.1 		"/>
	</g>
	<g>
		<polygon class="st3" points="584.2,394.9 580.2,416 570.4,421.7 574.5,400.5 		"/>
	</g>
	<g>
		<polygon class="st5" points="574.5,400.5 570.4,421.7 536.6,389.1 540.6,367.9 		"/>
	</g>
	<g>
		<polygon class="st4" points="550.4,362.3 584.2,394.9 574.5,400.5 540.6,367.9 		"/>
	</g>
	<g>
		<polygon class="st3" points="504,389.1 499.9,410.2 490.2,415.9 494.2,394.7 		"/>
	</g>
	<g>
		<polygon class="st3" points="484.5,400.4 480.4,421.5 470.6,427.2 474.7,406 		"/>
	</g>
	<g>
		<polygon class="st5" points="474.7,406 470.6,427.2 462.2,419 466.2,397.9 		"/>
	</g>
	<g>
		<polygon class="st5" points="518.3,432.9 514.2,454.1 480.4,421.5 484.5,400.4 		"/>
	</g>
	<g>
		<polygon class="st5" points="517,446.7 512.9,467.9 504.5,459.7 508.5,438.6 		"/>
	</g>
	<g>
		<polygon class="st3" points="546.3,429.8 542.2,451 512.9,467.9 517,446.7 		"/>
	</g>
	<g>
		<polygon class="st4" points="495.5,380.9 504,389.1 494.2,394.7 528.1,427.3 537.8,421.7 546.3,429.8 517,446.7 508.5,438.6 
			518.3,432.9 484.5,400.4 474.7,406 466.2,397.9 		"/>
	</g>
	<g>
		<polygon class="st3" points="471.9,459.7 467.8,480.9 458.1,486.5 462.1,465.4 		"/>
	</g>
	<g>
		<polygon class="st5" points="462.1,465.4 458.1,486.5 441.1,470.2 445.2,449.1 		"/>
	</g>
	<g>
		<polygon class="st4" points="455,443.4 471.9,459.7 462.1,465.4 445.2,449.1 		"/>
	</g>
	<g>
		<polygon class="st3" points="470.6,473.5 466.5,494.7 437.2,511.6 441.3,490.4 		"/>
	</g>
	<g>
		<polygon class="st5" points="441.3,490.4 437.2,511.6 428.7,503.4 432.8,482.3 		"/>
	</g>
	<g>
		<polygon class="st4" points="462.1,465.4 470.6,473.5 441.3,490.4 432.8,482.3 		"/>
	</g>
</g>
</svg>
