<svg xmlns="http://www.w3.org/2000/svg" viewBox="0 0 250 250"><defs><style>.cls-1,.cls-2,.cls-3{fill:none;stroke-linecap:round;}.cls-1{stroke:#8c9292;}.cls-1,.cls-3{stroke-miterlimit:10;stroke-width:4px;}.cls-2{stroke:#2a546c;stroke-linejoin:round;stroke-width:3.71px;}.cls-3{stroke:#cc7329;}.cls-4{font-size:39px;fill:#2a546c;font-family:GillSansMT-Condensed, Gill Sans MT Condensed;letter-spacing:0.14em;}</style></defs><title>Original logo</title><g id="ORIGINAL_LOGO" data-name="ORIGINAL LOGO"><path class="cls-1" d="M118.59,112.22c-25.63,0-38.45,25.64-32,57.68"/><path class="cls-1" d="M131.4,112.21c0,25.63,25.64,38.45,57.68,32"/><path class="cls-1" d="M131.71,99.09c25.32.31,38.14-25.33,31.72-57.37"/><path class="cls-1" d="M118.59,99.4c-.36-25.28-25.33-38.75-57.68-32"/><path class="cls-1" d="M118.59,112.22c0,25.63-25.63,38.45-57.67,32"/><path class="cls-1" d="M118.59,99.4c-26,.36-38.45-25.63-32-57.67"/><path class="cls-1" d="M131.71,99.09C131.4,73.77,157,60.95,189.07,67.35"/><path class="cls-1" d="M131.4,112.21c25.63,0,38.76,25.32,32,57.67"/><rect class="cls-2" x="113.12" y="93.91" width="23.78" height="23.78" transform="translate(-38.19 119.38) rotate(-45)"/><line class="cls-1" x1="86.55" y1="144.26" x2="163.44" y2="67.35"/><line class="cls-1" x1="86.54" y1="67.36" x2="163.45" y2="144.25"/><circle class="cls-3" cx="125" cy="105.81" r="76.37"/><line class="cls-3" x1="124.69" y1="160.18" x2="133.8" y2="151.17"/><line class="cls-3" x1="125" y1="51.43" x2="134.06" y2="60.49"/><line class="cls-3" x1="124.69" y1="160.18" x2="115.68" y2="151.07"/><line class="cls-3" x1="125" y1="51.43" x2="115.93" y2="60.49"/><line class="cls-3" x1="179.37" y1="105.81" x2="169.72" y2="96.75"/><line class="cls-3" x1="179.37" y1="105.81" x2="169.86" y2="115.01"/><line class="cls-3" x1="73.73" y1="105.81" x2="83.38" y2="114.87"/><line class="cls-3" x1="73.73" y1="105.81" x2="83.24" y2="96.6"/><text class="cls-4" transform="translate(80.25 217.11) scale(1 0.96)">PE-LE</text></g></svg>